<svg version="1.1" xmlns="http://www.w3.org/2000/svg" x="0" y="0" width="1000" height="1000" viewBox="0 0 1000 1000" xml:space="preserve" fill="white">
  <g fill-rule="evenodd" clip-rule="evenodd">
    <path d="m546.3 239.6-2.3.2c-2.6 0-3.2-1.3-2.8-3.7.9-6.1 1.9-12.3 2.5-18.4.3-3.7-.2-7.4-.3-11.2 0-1.3.1-2.7.6-3.8a46.1 46.1 0 0 0 3.9-22.6c-.3-5.3-.1-10.6.2-15.8.1-3.1 2.7-4.4 5.1-5.4 9.5-3.7 19.3-5 29.4-2.6l13.3 3c5.2 1.2 6.9 3.2 7.4 8.6.7 8.1-1.9 14.6-9.8 18-8.1 3.5-15.7 8-24.6 9.6-3.7.6-7.1 2.5-10.6 3.8-1.8.7-2.7 1.9-2.7 3.9l-.1 6.8c.1 4.3.3 8.5-2.1 12.6-1 1.7 0 4.6.5 6.9.3 1.4 1.6 2.5 2.2 3.9 1 2.7-.1 5-2.9 5.7-2.2.5-4.5.6-6.7.8l-.2-.3zm9.3-46.5c4.3-1.4 7.4-2.2 10.3-3.3a175.8 175.8 0 0 0 27.6-12.7 6.7 6.7 0 0 0 2.8-4.9c0-1.1-2.6-2.8-4.1-3.1-7.6-1.1-15.3-2.1-23-2.7-4.1-.3-11.5 5.7-12.2 9.7-.8 5.2-.9 10.4-1.4 17zM599.5 399c1.1 3.2.2 4.9-2.3 5.4-7.5 1.6-15 2.2-22.2-1.2-3.2-1.5-5.1-4.1-4.8-7.6.3-4.1.9-8.2 1.6-12.3.7-3.9 1.7-7.7 2.7-12.1l-6.2-1.7c-2.9-.7-5.9-1.1-8.9-1.9-2.1-.5-4.7-.9-4.4-4.1.3-3.5 3.1-6.4 6.3-6.1 3.2.3 6.3 1.2 9.4 1.9l6.6 1.8c2.9-7.4 3.3-15.1 6.8-21.7l1.3.1c.3 1.1 1 2.3.8 3.3-.8 4.5-1.9 8.8-2.9 13.3l-1 6 11 2 3.9.5c2.1.2 3.6 1.1 3.9 3.4.3 2.6-1.4 4-3.6 4.3-3.1.4-6.4.6-9.6.5-2.8-.1-5.6-.7-9-1.1-2 5.6-3 11.3-3.6 17-.1 1.1 1.2 2.7 2.3 3.5 4.2 3 8.7 5.2 14.1 5.5 2.5.1 5.1.8 7.8 1.3zM653.7 207.6c5 7.5 11 12.7 19.2 15 2 .6 4.9.4 4.5 3.8-.3 2.6-2.4 3.9-6.2 3.3-11.1-1.8-20.9-5.6-25.3-17.3-.1-.3-.5-.5-1-1.1-2.9 1-4.6 2.9-4.3 6.2.2 3 .9 6 1.3 8.9.3 2.4 1.4 5.7-1.7 6.3-3 .6-3.7-2.9-3.9-5.2-.6-4.9-1-9.8-1.1-14.7-.1-4.7.2-9.4.3-14.1.1-4.5 3-8.7 7.6-10.3a26.5 26.5 0 0 1 16.7.2c2.7.8 3.4 2.9 3.3 5.3-.2 4.3-1.4 8.2-5.3 10.8l-4.1 2.9zm-13.6-1.8a71 71 0 0 0 16.7-7.8c-5-2.7-9.2-2.8-13.4-1.8-1 .2-2.2 1.6-2.5 2.6-.6 1.9-.5 4-.8 7zM689.6 280.3c-.5-2.3-1.2-4.5-1.4-6.8-1-9.1 2.7-17 6.3-24.9a207.2 207.2 0 0 1 19.4-31.9 153 153 0 0 0 10.2-17c3-5.7 1-8.9-5.5-9.5-3.6-.4-7.2-.6-10.7-1.4-5.3-1.1-7.3-4-5.8-9a29.3 29.3 0 0 1 15-18.2c.3-.1.7.1 1.2.2 1.4 2.3-.4 3.3-1.9 4.4-4.1 3.1-6.6 7.5-9.4 11.9 3.2 3.3 7 3.3 10.8 3.4 2.6.1 5.3 0 7.9.6 4.4.9 5.9 3.2 5.9 7.7a29 29 0 0 1-5.2 15.4c-7.1 11.3-15 22.1-22.2 33.4a90.6 90.6 0 0 0-11.9 26.1c-.8 3-.2 6.4-.3 9.6-.1 2-.4 3.9-.6 5.8l-1.8.2zM611.7 194.7l4.9-4 .6 5.1c.4 5.6.6 11.3 1.3 16.8.5 3.7 1.6 7.3 4.6 10 2.2 1.9 2 4.2.2 5.9-2.1 1.9-4.1.8-5.5-.7-1.9-2-3.4-4.5-5.2-6.9l-14.7 2.6c-1.5.2-3 .4-4.5.3-3.4-.2-5.5-2-5.3-5.3.3-9.7 4.4-17.5 12.6-22.7 3.3-2 7.1-2.8 11-1.1zm0 6.3c-10.5-1.5-17.6 3.7-17 12 4.4.9 13.1.3 17-1.2V201zM664.7 300.2c.4 3.2-1.2 4.1-3.2 4.4-5.4.9-10.8 2-16.2 2.3-10.9.7-17.2-6.1-16-16.8.6-5.4 3.1-10.1 7.5-13.5.9-.7 1.9-1.3 2.9-1.7 3.4-1.4 6.2-1.1 7.9.8 1.6 1.8 1.9 6-.1 8.5-2.7 3.3-5.9 6.2-9.5 9.8.5 3.4 4.1 4.1 7.3 4.6 4.6.8 9.4.9 14.1 1.3l5.3.3zm-21.8-18.1-.8-1c-4 .6-4.4 1.1-5.7 7l6.5-6zM580 305.6l-6 .7c-2.6.4-5.2 1.2-7.8 1.4-3.6.2-5.9-1.9-5.9-5.4 0-5.1 1-10 5.6-13a74 74 0 0 1 10.4-5.5c3-1.3 6.1-2.2 9.6-3.5.1.6.5 1.7.5 2.9l-.3 9.1c-.1 5.3.1 10.6 2.7 15.4 1.1 2 1.5 4.1-.9 5.4-2.4 1.3-3.9-.2-5-2.1-1-1.6-1.8-3.3-2.9-5.4zm1.1-16.9c-6.1-.7-12.3 2.2-14.3 6.2-1.1 2.2-.3 3.9 2.2 3.7 3.7-.2 7.3-.9 11.3-1.5l.8-8.4z"/>
    <path d="M669.5 281.3c2.3.5 4.3.8 6.2 1.5 1.1.4 2.7 1.6 2.6 2.3a5.1 5.1 0 0 1-2.2 3.4c-1.2.8-2.8 1.1-4.3 1.4l-9 1c-4.3.4-6.4-1.8-6-6.1.6-6.5 3.8-12 8.5-16.2 6.8-6.1 17.9-1.4 19.5 8.2-2.1.8-3.4-.6-5-1.7-5-3.5-9.5-1.1-10.3 6.2zM628.9 363.1c7.8.1 10.2 3.7 8 11.6-1.9 6.9-11.9 12.4-19.1 11.5-3.2-.4-4.5-2.4-5.1-5.2-1.9-8.8 1.9-14.8 10.7-16.9 2-.5 4.1-.8 5.5-1zm3.4 9.6c-1.5-3.4-4.1-3.3-6.5-2.9-2.5.4-5.2 1.1-7.3 2.4-1.9 1.2-.6 4.8 1.8 5.1 4.6.5 9 0 12-4.6zM596.6 282.8c1.5 2.9 2.4 5.2 3.8 7 1.4 1.9 3.3 3.4 5.5 5.6 1.7-2.8 3.1-5 4.3-7.3a53.7 53.7 0 0 1 12.1-15.5c1.6-1.4 3.4-3.3 5.6-.6-.3.7-.4 1.3-.8 1.6a61.6 61.6 0 0 0-16 23c-1.1 2.3-2.9 4.4-4.4 6.5-1.8 2.4-3.8 2.1-5.8.3a24.6 24.6 0 0 1-7.6-11.1c-.9-3.3-.2-6.2 3.3-9.5zM658.8 359.1l.9 5.7c.4 3.4.5 6.7 1.1 10.1.9 5.3 1.1 5.4 5.9 8.5-.4 2.5-.5 5.2-4.1 5.6-2.7.3-4.4-1-5.7-4.4a36 36 0 0 1-.5-22.7c.2-.8 1-1.3 2.4-2.8zM686.5 198.2c.3.6.8 1.2 1 1.9l2.9 10.9c.8 2.8.7 5.2-2 6.8-7.2-5.4-8.2-15.5-1.9-19.6zM686.5 179.6c.6 6.1-.1 7.2-4.9 9.4-2.3-4.3-.4-8.2 4.9-9.4zM662.3 341.9c.1 3-2.4 6.1-4.3 5.7a3 3 0 0 1-1.9-2.2c-.4-2.7 1.8-5.6 3.8-5.3 1 .2 1.9 1.4 2.4 1.8z"/>
  </g>
  <g fill-rule="evenodd" clip-rule="evenodd">
    <path d="M479.8 300.2c2-4.7 1-9.6.6-14.4-.2-2.4 0-4.9-.1-7.3-.2-3.4-1.3-4.4-4.7-3.8-5.8 1-11.5 2.3-17.2 3.5l-5.9.9c.6-4.9 3-7.4 6.7-8.3 4-1 8.2-1.5 12.3-2.1 3.2-.4 6.4-.3 9.6-.9 1.4-.3 3.4-1.4 3.8-2.6a46 46 0 0 1 13.9-21c.5-.5.8-1.2 1.4-2.2a39.7 39.7 0 0 0-18-2.9l-1.6 5.5c-3.7.7-6.5-1-9-2.9-2.5-2-5-2.3-7.9-1.7-4.4.9-9 1.3-13.3 4.6l2.4 4.8 7.9 14.4c.9 1.7.9 3.3-.7 4.6-1.7 1.4-3.3.6-4.5-.7-1.6-1.6-3-3.4-4.4-5.2l-7.3-10.1c-1.6-2.2-2.2-4.2-.9-6.8.6-1.2.4-2.7.6-4.1.1-.9 0-1.9.3-2.7 1-3.2 1.2.6 2.4-2.6.4-1.1-.2-2.6 1-4.1 3.7 5.8 1.6 3.2.6 7.6a75.7 75.7 0 0 0 20.8-8c5.3.3 10.1-.1 14.5.8 7.9 1.6 15.8 3.8 23.5 6.1 2 .6 3.7 2.2 6.4 3.9l-4.1 2.1c-8.2 3.2-15 8-18.7 16.2-1.6 3.4-1.2 4.2 2.4 5.1l7.3 2.1c-2.2 5.2-6.9 4.1-10.8 5.5 0 1.6-.8 4.1.1 5 4.1 4.1 2.5 9.7 4.1 14.4.5 1.5.4 3.4.1 5.1-1.4 8.5.1 16.8.7 25.2.1.9 0 1.9-.6 2.9-.2-.9-.2-1.8-.5-2.6a4 4 0 0 0-1.7-2.2c.1 6.2-3.4 12.4 1 18.3.8 1.1.6 2.9.8 4.3l1.3 15.8c.1 1.3.7 2.5 1.2 4l3.1-.8c.7 2.3-3.3 6.2-7.9 7.4 4.4 20 4.5 40.5 6.1 60.9 4.2-.2 1.8-4.3 4.4-5.8.6.6 1.6 1.2 2 2a29.9 29.9 0 0 1 2.1 20.4c-.6 2.7-1.5 5.5.9 8.6l2.6-4.3c.6.3 1.3.5 1.5.9 2.1 3.3 2.9 6.9 2.7 10.8l-.5 7.3c-.1.7-.1 1.9-.5 2.1-3.8 2-2.8 5.9-4.3 9.3l4.1.9.6 3.5c-1.8 1.2-5.7-1.6-5.4 3.4l4.9.8 2.5 5.4c-1.2 2.1-3.8 4.6-1.7 7.8 1.5.2 3.6.1 3.9.7 1.3 2.9 2.2 5.9 2.8 9 .1.6-1.2 2.1-2.1 2.2-1.6.3-3.3 0-5-.1l-1.9-8.4c-1.8 4.3-1.4 6.8 2.1 8.2.4 3.2.7 6.4 1.4 9.5.2 1 1.5 2 2.5 2.6 1.6.9 3.3 1.3 5.2 2.1l-5.8 5.1 7.2 3.2c-.8 2.6-3.2 4.8-1 7.7l-1.4.4-4.1-6.2c-1.9-2.9-3.8-3.6-6.6-2.5-2.8 1.2-2.5 3.6-2 5.8 1.2 4.3 1.2 9.2 6 11.5 1.4.7 2.8 1 4.2 1.6 1.7.7 3.5 1.8 2.5 3.7-.6 1.1-2.6 2-4.1 2.1-1.8.1-3.6-.9-5.5-1.3-4.1-.8-4.8-.1-5.5 4-.5 3.3-1.7 6.5-2.3 9.8-.4 1.9-.3 3.9-.5 6.1 2.7.1 4.5.1 6.4.3l4.6.9.1 1.3c-1 .6-2 1.4-3.1 1.6-2.8.5-5.6.7-8.4 1.1-4.2.6-5.1 1.2-4.7 5.3.6 4.8 1.6 9.7 3.4 14.2 4.6 11.8 9.8 23.3 14.7 35l9.3 22.5c1 2.4 2.5 3.4 5.1 3.5 8.3.4 16.5 1.1 24.8 1.6l.6-1.2-5.7-5.5a120.7 120.7 0 0 1-36.5-65.2 15 15 0 0 1 0-5.6c.4-1.5 1.5-3.8 2.5-3.9 1.5-.1 3.4 1 4.7 2.2 1 .9 1.6 2.5 2 4 3.4 11.8 10.8 21.5 16.2 32.2 3.3 6.6 8 11.9 12.5 17.3 4 4.9 8.5 9.5 13 13.9 6.1 6.1 13.7 7.2 21.2 9.7 8.1 2.7 16.4 4.1 24.8 5.3 3.1.5 6.1 1.8 9.5 2.8l-1.7 3.7c-14-2.9-27.9-3.3-41.9-3-3.4.1-6.8 1.4-10.2.1-.3-.1-.9.1-1 .3-2.1 3.9-5.6 2.1-8.6 2.1-3.6 0-7.2-.3-10.8-.6-4.5-.4-8.7-.2-12.2 3.5-5.8-4.3-12-2.8-18.1-1.7-14.3 2.4-28.7 4.9-43 7.5-3.9.7-7.7 2.1-11.5 3.1-11.4 3.2-22.9 6.3-34.2 9.7-5.4 1.6-10.7 3.8-15.9 5.9l-31 12.4-2.7.9c-6.4 1.3-10.6 4.3-12.4 11.3-1.4 5.2-4.9 9.7-7.4 14.6-1.3 2.5-3 4.9-3.9 7.5-3.1 9.7-7.2 19.1-12.9 27.5-3 4.4-4.4 10.1-9.6 12.8-.5.3-.5 1.4-.9 2l-6.3 9.2-4.8 6.8c-.5.8-.9 1.7-1.6 2.4-4.1 4.6-8.4 9.1-12.4 13.9l-21.3 25.3c-.8 1-1.9 1.8-2.9 2.7-6.3 5.7-12.5 11.5-18.9 17-5.3 4.6-10.7 9-16.1 13.4-5.7 4.6-11.9 8.7-17.1 13.8-7.6 7.4-16.5 13-24.2 20.2-7.5 7.1-15.4 13.8-22.6 21.1-7.2 7.4-13.8 15.5-20.6 23.4-1.7 2-3 4.2-5 7.1 2-.2 3.2-.1 4.4-.3 11-2.3 22-3.5 33.2-1.4 3 .6 4.9-.4 6.2-3.4 1.8-3.9 3.8-7.8 6.4-11.3 4.7-6.4 8.8-7.5 16.3-5.2 4.8 1.5 8.7 4.6 11.6 8.6.4.5.3 1.4.4 2.2-2.7.7-4.1-1.2-5.6-2.4a20 20 0 0 0-12-4.5c-5.1-.2-8.9 1.7-11.3 6.1-1.8 3.3-3.2 6.8-5.1 10.7 4.9 2.2 9.6 4.1 14 6.4a31.5 31.5 0 0 1 13.7 13.1c.6 1.1.8 2.6 1.5 5.2-2.2-1.2-3.4-1.5-4-2.3-6.7-9.1-16.7-12.7-27-15.5a84.5 84.5 0 0 0-52.3 3.6c-5.7 2-10.8 4.5-14.2 9.7-.5.7-1.8 1-3.2 1.7-.4-5.9 2.9-9 6.8-11.4 3.6-2.3 7.7-4 11.7-5.7a13 13 0 0 0 7.4-6.5 105 105 0 0 1 18.8-26.1c6.9-7 6.7-14.2-.2-21.3a28 28 0 0 0-18.6-8.7 79.6 79.6 0 0 0-40 5.5c-5.1 2.4-10.7 3.9-15.7 6.5-14.4 7.2-21 19.5-21.6 35.2-.1 2.3.8 4.7.2 7.8-1.1-.8-2.4-1.3-3.1-2.3-2.6-3.7-2.2-7.9-1.2-12 4-16.7 14.2-28 30-34.5 7.7-3.1 15.3-6.5 23.1-9.5 3.5-1.3 7.2-2.5 10.9-2.8 9.6-.7 19.3-1.4 28.6 2 9.4 3.5 16.4 9.3 17.7 20 0 .4.2.7.4 1l.9.6c1.8-1.3 3.9-2.6 5.6-4.2 8.6-7.7 17-15.5 25.5-23.3l24.2-22.1c5-4.6 10-9.3 14.5-14.3 2.1-2.3 3.4-5.4 4.6-8.4.6-1.3.1-3.1.1-5.4-1.9.6-3.1.8-3.9 1.4l-27.9 20.3c-1.1.8-2.4 1.2-3.7 1.8l-.7-.9c.6-.7 1.2-1.6 1.9-2.2l26.2-20.8c3.3-2.6 6.2-5.6 9.7-8.8-4.8-1.5-8.5 1.7-12.6 1.9.4-4.5 3.2-6.8 6.5-8.8l-.2 2.4c0 .1.8.3.9.2.5-.7 1-1.4 1.1-2.1.1-.3-.6-.8-1-1.2 6.3 2 7.5 1 7.6-6.2 6.5-6.5 14.9-10.8 20-18.9-.9-1.2-1.6-1.9-2-2.7-2.6-4.9-2.3-6.6 1.4-10.5l3.7-3.5 3.3-2.5-1.1-6.4-5.7 2.3-.5-.5c1.1-1 2.1-2.8 3.4-3 5.1-.9 7.8-5 11.3-8 1.6-1.3 3.1-2.6 5.1-3.7-1.1 4.2-5.4 6.9-5.6 11.5 6.4 1.6 9.5-.3 12.1-7.5 4.1-.9 8.2-1.8 12.3-2.9 1-.3 1.9-1.2 2.6-2 1.2-1.3 2.3-2.8 4.3-3.7-.7 1.5-1.2 3-2.1 4.3-1.6 2.5-.6 3.8 2.1 4.5l-3.2 9.6c2.7-.1 3-2 3.7-3.3 4-7.7 7.7-15.5 11.8-23.1 3.8-7.1 8.2-14 12-21.1 1.8-3.4 3.8-7.1 4.3-10.9.6-4.7 3.3-7 7.1-8.6 2.8-1.2 5.8-1.8 8.6-2.9l8.1-3.6c.5-.2.9-.8 1.4-.8 9-.5 16.7-5.3 25-8.1 8-2.7 15.8-6.3 23.6-9.6 1.9-.8 3.6-2 5.8-3.3 1 1.7 2.5 2.3 4.7 1.1a46.6 46.6 0 0 1 16.7-4.9c.6-.1 1.2-.1 1.7-.3 8.8-3.7 18.3-4.3 27.5-6.3.3-.1.5-.4 1.4-1.2l-4.8.5-29.7 3.8-.6.1c-7.4 2.6-15.3 2.7-22.9 4.4-7.6 1.6-15.3 2.4-22.8 4.3-11.7 2.9-23.2 6.7-35 9.3-6 1.3-10.4 3.8-13 9.4-.2.5-1.1.8-2.7 1.8l2.5-8.2-5.8 2.5c-1.4.6-2.8 1.3-4.2 1.6-.9.2-2.5 0-2.9-.7-.5-.7-.5-2.3 0-3 2-2.8 3.8-5.9 6.4-7.8a133 133 0 0 0 22.9-22.7c7.6-8.9 14-18.8 19.2-29.3v-1.4c-4.3-.7-6.5 4.4-11.1 3.9l-2.7-3.2-15.5 15.1-.6-.3c1-2.3 2-4.7 3.1-6.9 2.1-4.1 4.1-8.4 6.6-12.3 2.7-4.3 4.6-4.6 9.7-2.5 4.5-11.6 12.6-20.7 20.5-30.1 5.5-6.6 11.5-13.1 14.4-21.5.5-1.4 2-2.6 3.3-4.2l-4.1-.3c.4-3.8.4-3.8 8.1-8.8a39.1 39.1 0 0 1 4.7-22.8 243.8 243.8 0 0 0 17.8-47.1c3.3-13.9 6.1-27.9 8.6-41.9 1.6-8.9 2.5-17.9 3.5-26.9.2-1.7-.6-3.5-.7-4.3.9-4 1.8-7.2 2.2-10.5.8-7.9 1.1-15.8 1.8-23.7.5-5-1.3-9.4-4-13.3 4.3-5 4.2-6-.4-9.1.1-.4.1-.9.3-1 4.8-2.3 5-6.4 4.5-11-1.4-13.2-2.7-26.3-3.9-39.5l-2.3-26c-.2-1.9-.1-3.8.1-5.6.1-.7 1.2-1.9 1.7-1.8.9.2 2.1.9 2.4 1.7.5 1.2.3 2.6.4 3.9l4.5 37.6c1.3 10.7 2.7 21.3 3.6 32 .4 5 .3 10.2-.2 15.2-.7 7.5.8 14.6 2.8 21.8.4 1.3.7 3.2.1 4.2-6.4 11.2-6.6 23.5-5.9 35.7.3 5.4.2 10-1.7 15.1-.8 2.1-2.9 6.2 1.7 8.2l-2.7 2.3 2.7 4c-6 1.8-3.3 7.7-6 11.6 3.7.6 3-2.8 4.6-3.7 2.2 2.7 2.3 4 0 5.7-1 .8-2.3 1.3-3.5 1.8-1.9.8-3.1 2.1-3.1 4.3 0 .9 0 2-.3 2.8-5 11.6-6.3 24.3-12 35.8-5.9 12-10.4 24.7-15.5 37.1-.5 1.2-.6 2.5-1.1 4.8 4.4-1.7 8.3-2.6 11.4-4.6 3-1.9 5.3-5 7.9-7.6l1.1.8-1.7 3.9 35.7-6.5.4-8.7c0-1.1.4-2.5-.1-3.2-2.4-3.3-1.8-6.9-1.3-10.4 1-7.3 2.6-14.5 3.6-21.7.6-4.3.9-8.6.6-12.9-.3-4.3-.8-8.5.7-12.8.8-2.2.8-4.9.7-7.3-.6-14.5-.7-29.1-2.4-43.4-1-8.5-1.3-16.9-1.5-25.3-.1-5.6.4-11.3.1-16.9-.4-6.8-1.6-13.5-2-20.3-.8-13.7-1.1-27.5-1.8-41.3-.3-5.5-1.2-10.9-1.6-16.3-.3-3.9-.2-7.9-.2-11.9 0-1.3 0-2.3-1.7-2.2.3-.2.5 0 .5 0zm39.8 368.5c-3.9-8.7-7.9-17.2-11.5-26-6.1-15.2-14.4-29.6-17.8-45.9-1.2-5.6-6.1-8.2-11.8-6.9l-22 5.3a6.2 6.2 0 0 0-3.2 2.1 64.9 64.9 0 0 0-13.3 28.3c-.6 3.1-2.2 6-3.7 8.8-3.4 6.3-7.1 12.4-10.7 18.6-2.7 4.8-5.2 9.6-8 14.4-.5.9-1.6 1.5-2.4 2.3l-1.1-.8c4-11.7 11-22.1 15.3-33.7 4.3-11.6 8.7-23.1 11.9-35.6-1.6.2-2.6 0-3 .4-3.9 4.1-8.3 8.6-8.5 14.2A43.8 43.8 0 0 1 421 637c-2 3.1-4.9 2.9-6.5-.4-.8-1.6-1.1-3.4-2.1-6.5l-5.9 10.1-4.1-1.9c-5.2 18.8-18.1 33-27.8 49.9 17.5-1.2 34-4.4 50.3-8.1.5-19.2 6.9-38.5 13.7-41.8-.3 3.2-.9 6.3-.7 9.5.3 4.6 1.7 9.1 1.8 13.6.1 3.2.8 5.8 2.3 8.5 1.9 3.3 1.7 3.4.3 6.5l77.3-7.7zm-81.7-74.6 62.1-13.6-3.1-10.6a86 86 0 0 0-47.8 5c-7.1 2.5-11.7 10.9-11.2 19.2zm8.5-23.9.3.6c8.1-2 16.2-4.8 24.4-5.8 8.2-.9 16.7 0 25.2.1 0-.5.1-1.3-.2-1.5-2.5-1.9-5-3.7-8.6-3-4.6.9-9.4 1.2-14 2.1-7.9 1.6-15.8 3.6-23.6 5.5-1.2.3-2.3 1.3-3.5 2zM277.8 841.6c-1.5-.2-1.7-.3-1.8-.2-1.5 1.3-2.9 2.9-4.5 3.9s-3.6 1.5-5.4 2.4c-.5.3-.6 1.3-1 2.1l3.8 2.9 8.9-11.1zm10.3-45.1c-3.5 3.1-3.9 5.3-1.9 9.8 3.4-3 4.2-6.9 1.9-9.8zm218.1-295.7a12.1 12.1 0 0 0-1.3 10.1c4.2-6.1 4.3-7 1.3-10.1zm-70.6 73.8c-5.4.6-5.4.6-3.7 3.9l3.7-3.9zm64.3-101.2c2.1-2.2 2.8-3.6.4-5.4-.5 1.1-1.1 1.8-1.2 2.6-.1.6.3 1.3.8 2.8zm11.2 53.8c-1.8 2.3-1.3 3.6 1.5 4.6l-1.5-4.6z"/>
    <path d="m354 812.1 1.3-4.2-3-1.5 4.9-7.1-4.9 1.8c-.1-.4-.4-.8-.2-1 3.3-5.5 6.8-10.8 9.9-16.4 2.6-4.7 4.4-9.8 6.8-14.6 1.3-2.5 3-4.7 4.6-7.1 1.4-2.1 2.3-4.3 1.1-7 3-1.2 5.2-3 6-6.8-8.8.5-16 6-24.7 6.5 1.6-2.5 7.2-5.7 13.2-7.7l-.1-.1c1.5-.9 3.1-2.7 4.3-2.5 2.5.5 3-1.4 4.5-2.3 2.6-1.8 5.7-3 8.7-4.1 9.2-3.3 13.7-10.5 17.1-19 .1-.3.5-.5 1-.9 2.9 2.4-1 5.7 1.3 8.9l1.6-4.7 7.3-.7c0 3.4-1.7 7.3 2.2 10.7L433 728l1.9-16.6c2.9.4 3.4 2.4 3.5 4.9.1 2.7-.5 5.7 3.4 7 1.1.4 1.4 3.1 2 4.8.5 0 1 .3 1.2.1 3.8-2.6 8.1-1.7 12.2-2.3l52.3-6.9c6-.8 11.9-2 17.9-2.6 5.4-.6 10.9-.7 16.4-.8l52.7-1.6h7.4c-3.8-6.2-9.1-10.2-14.2-14.3.4-3.7 1.2-6.9 6.1-7.8l9.4 8.7c5.5-.8 8.9 2.5 12.2 6.7 2.8-1.1 5.2-.4 7.4 2 2.3 2.6 5.4 2.3 8.8 2.3l-1.8-6.6c4.4 3.5 4 8.1 6.3 11.3 2.4 3.3 3.4 7.4 6.9 11l1.5-6.2 4.6-.4.3 1.1-3.2 1.7c-.2 2.1.4 4.2 2.5 5.4 2.9 1.7 3.9 4.4 4.4 7.5.8 4.4 2.6 8.2 6.6 11.1 1.2-1.7 1.2-3.1.3-4.7v.1c2.7 3.8 4.2 8.5 8.6 10.9 1.8 7 8.3 11.7 9.5 19a4 4 0 0 0 1.3 2.4c3.8 3.3 5.3 9 11 10.6.8.2 1.9 1.7 1.9 2.6-.1 6.5 4.7 10.1 8.5 14 6.6 6.8 13.8 12.9 20.7 19.3 5 4.6 10.1 9 15 13.8a120 120 0 0 0 22.1 16.7c9.1 5.4 17.9 11.2 27.2 16.3 10.9 6 22.2 11.4 33.1 17.3 13.3 7.2 26.6 14.3 38.3 24.1.4.4 1 .5 1.6.9 3.1-2 6.1-4.3 9.4-6 17.8-9.2 36.9-12 56.7-10.1 6.1.6 11.8 2.5 17 5.9 3.5 2.4 5.6 5.5 6.6 9.6.5 2.2.5 2.2-1.8 5.8-.7-1-1.5-1.9-1.8-2.8-2-8.1-8.1-11.5-15.3-13.5a74 74 0 0 0-29.3-1.4c-10.2 1.2-20 3.9-29.5 7.9a18.3 18.3 0 0 0-8.4 6.7c.7 1 1.3 2 2 2.8 5 5.4 10.2 10.6 15.1 16.1 1.6 1.7 3 1.7 5 1.3 5.5-1.1 11.1-2.2 16.7-2.8 16.5-1.8 22.1 9.7 21.6 21-.2 3.8-.3 7.8-3.5 12.2l-.8-11.5a18.4 18.4 0 0 0-18.7-17.4 69 69 0 0 0-33.6 8.7c-5 2.7-9.7 5.7-14.8 8.7 1-3.1 4.6-6 12.1-9.9l14.9-7.6a14 14 0 0 0-6.3-6.2c-1.8-.9-3.6-2-5.1-3.4-15.4-13.7-33.5-23-51.6-32.5-22.6-11.7-46.5-21.2-67.3-36.2a383.7 383.7 0 0 1-21.4-16.7c-8.2-7-15.9-14.5-24.1-21.5-5.9-5.1-12.2-9.9-18.3-14.8l-.8-.7c-5.1-8.8-13.8-14.3-20.2-21.8-2.3-2.7-5.1-.5-7.6-1.8-2.8-1.5-6.1-2-9.2-2.9l.3-1.2 10.5 1c-1.1-1.6-1.7-2.9-2.6-3.8l-24.2-23.8a161 161 0 0 1-11.6-13.2c-6.9-8.8-16.9-12.3-26.7-16.3-1.5-.6-3.3-.4-5-.4l-29.9 1.7c-2.3.1-4.7-1.6-7.1.7l13.1 23.9.8-.1V736l10.3-1.2-2.4-5.1 3.3-3.8 9.3 11.5 11.1-1.1c3.4 5.5 2 10.2.1 15 3.1 1.8 4.9-1.4 7.2-1.7 2.3-.3 4.6.2 7.6.4-3.2 1.6-2.9 3.6-1.2 5.9 1.2 1.7 2 3.6 3.1 5.3 2.8 4.1 5.4 8.5 8.8 12.1 2.1 2.1 5.5 3 9.1 4.8v-9.6h1.3c1.7 3 1.2 6.7-.1 9.3-1.7 3.1-1.6 6.1-1.9 9.2-.2 2.9-.3 5.5-3.2 7.4-2.3 1.6-2 4.3-1.3 6.7.3 1.2 1.5 2.3 1.7 3.6.8 5.5 3.6 8.5 9.9 7.7l-2.5 4.1c5.3 7.9 10 15.8 11.6 25.1.5 3.2 1.9 5.7 6.2 5.7l-3 4.2 8.8 8.3c-1.1.2-2.3.8-2.8.4-3-2.2-5.8-4.7-8.9-7-.9-.7-2.5-1.3-3.3-.9-.8.4-1.8 2.2-1.6 3 .7 2.2.3 3.8-1.1 5.6-.8.9-.2 2.9-.4 4.4l-.8 7.1-11.3 4c.4-3.5 2.4-5.6 6.2-6.3-.8-3.4-1.9-6.2-5.5-7.2l-6.1 3.9c-1.3-2.1-3-3.7-3.4-5.5-.7-3.2-3.7-3.5-5.6-5-.8-.6-2.7.4-4.2.7 1 3.5-3.6 3.8-3.7 6.6-.1 2.1-.3 4.3.5 6.1 2.6 6.7 2 13.3.7 19.9 1.9 2.8 4.3 3.3 7.5 3 9.5-.9 18.5 1.1 26.9 5.4 10.7 5.5 21.3 11.3 32 17l43 23c2 1.1 4.9 1.6 4.6 5.4-1.1-.1-2.2.1-3.1-.3-11.6-5.1-23.3-10-34.6-15.5-10.9-5.2-21.3-11.4-32.2-16.7-9.3-4.6-18.9-8.6-28.4-12.6-2.3-1-5.2-.7-7.8-1-2.5-.3-3.3 1.3-3.7 4-3.1-3.8-6.5-3.2-10.2-1.5-5.9 2.7-12.1 5.2-17.8 7.6 2.2-2.4 5-4.9 8.4-6.7 1.9-1 2.7-2.2 2.9-4.4.2-2.3 1.1-4.7 2.2-6.8 3.3-6 4.2-9.4 3.8-17.3a40.5 40.5 0 0 0-15.9-.9c-9.3 1.2-18.6 2.9-27.4 6.6l-2.1.7c-9.3 4.1-11.6 12-4.7 19.4 3.9 4.2 9.2 7.1 13.9 10.5 1.4 1 3.8 1.2 3.2 4.3-1.2-.1-2.2 0-3.2-.3a47.9 47.9 0 0 1-17.3-9.4c-6.9-6-6.9-13.1-.5-19.6 4.5-4.6 9.7-7.8 15.8-9.7 11.2-3.5 22.6-6 34.4-6.6 5.3-.3 5.7-1 4.2-6.3l-9.2-32.1c-4.6-.5-6.1.9-4.6 4.9 1.7 4.3 3.9 8.5 5.7 12.8.7 1.6.7 3.5 1.1 5.8l-6.3-2.4c-2.3-8.5-4.5-17.5-7.3-26.3-2.8-8.4-6.2-16.6-9.5-24.8a314 314 0 0 0-11.3-24c-1.5-2.9-3.5-5.7-3-9.6 1 1 2.3 1.8 2.9 3 3.1 5.6 6.3 11.1 8.9 17 3.1 7.1 5.6 14.4 8.3 21.6 2.1 5.6 5.7 10.6 6.5 16.8.5 3.8 2.6 3.9 6.5 1.1a231.9 231.9 0 0 0-25.5-61.3c-5.4-9.5-10.3-19.3-15.8-28.8-2.3-4-5.5-7.7-8.5-11.3-2.2-2.7-5.3-3.2-8.8-2.8-8.1 1-16.2 1.7-24.2 2.8-19.4 2.8-38.9 5.7-58.3 8.7-2.7.4-5.5 1.5-8 2.8-3.1 1.6-3 2.4-.1 5.1-6.6 1.6-6.9 2-7.6 11.3l-13.5 11.1c-.7.6-1.6 1.6-2.3 1.6-4.9-.6-6 3.5-8.3 6.3-3.2 3.9-7.1 7.2-10.5 10.9-.8.8-1.3 2.1-1.6 3.3-.4 2 0 4.2-.8 6a33.8 33.8 0 0 0-2.8 14.3c-.2 5.3-.2 5.2-5.3 6.8-1 .3-2.2 1-2.6 1.8-2.4 4.4-5.1 8.8-6.8 13.5-2.3 6.1-3.9 12.5-5.5 18.9-1.4 5.5-2.2 11.1-3.3 16.6-.3 1.3-.8 2.5-1.5 4.6l-2.5-4.6c-2.7 3.5-3.5 14.7-1.5 20.4a45.5 45.5 0 0 1 22.2 7.1c-2.7-.5-4.4-.6-5.9-1.2a62.7 62.7 0 0 0-22.3-3.5c-5.5 0-10.8 1.6-15.4 4.9l.1.1c.8-1.1 1.4-2.8 2.4-3.2 4.8-2 9.7-3.8 15-5.7.4-8.9-.2-18.4 2.8-27.7l-.3 2.6c-.1 1-.1 2.1.5 3.3l2.6-9.3.9 4.8 1.1-.1 9.9-36.2c-5.1 3.2-5.9 7.5-6.4 11.7a70 70 0 0 1-5.5 20v-6.7l-2.6 3.2c-2.3-3.5-.8-6.3.9-8.9 2-3.1 2.1-6.2 1.8-10.3l-11.1 5.4-4.3-3.4c-.5-.4-1.4-1.3-1.2-1.6 1.5-3.5-1.6-4-3.6-5.1.8-2.3 1.8-4.3 2.2-6.5.4-3.2 2.1-4.2 4.6-4.3 3.2-.2 3.2-.2 2.7-2.9l-2.7 2.9zm240.7-15.3-1.4.5c.6 4.1.8 8.3 1.8 12.3 1 3.9 2.7 7.7 4 11.6l1.2-.1c.3-3.9.4-7.7.8-11.6.7-5.7-2.3-9.5-6.4-12.7zm12.1 59.1 6.2-3.8c-2-1.1-4.2-1.6-4.5-2.6-1.7-5.5-5.2-10.5-4.5-16.6.2-1.8.3-3.7-2.7-5.4.8 10.1.9 19.3 5.5 28.4zm-211.7-75v.5l.8-.4v-.5l-.8.4zM473.7 494.6l5.2-19.3c-2.7-3.8 1.7-7.2.5-11-.3-.9.4-2.1.7-3.1 1.1-3.8.8-4.3-3.5-5.9l.2.1c3.3-1.6 4.8-4 4.9-8 .3-9.4 1-18.8.1-28.3-1.4-13.7-1.8-27.5-2.9-41.3-1-12.6-1.9-25.2-3.6-37.7-1.5-11.1-.6-22.2-.7-33.3-.1-5.7 0-11.3.1-17 0-1.2.4-2.4.8-4.6 2.1 3.7 1.6 6.8 1.8 9.7.1 2-.3 4.3 2.4 5.2l-.1-.2c-.6 5.4-1.9 10.8-1.8 16.2.2 10.5 1.1 21.1 1.8 31.6l3.4 44 3.3 40.5c.1.9.3 1.9.1 2.8-1 4.6-1.6 9.1 1 13.4l-1.6 2 .8.4.7-2.5c1.5 4.8 1.5 4.9-2.6 8l1.7 2.7c-.8 2-1.8 3.8-2.1 5.7-.7 3.6-1 7.4-1.7 11-.6 3.1 1.9 4.1 4.2 5.7-2.1.9-4.5 1.2-4.8 2.3a13 13 0 0 0-.1 6.5c.6 2.7.9 4.9-.6 7.6-1 1.8-.9 4.3-1 6.5v8.3l-1.5.1-1.8-11.5a3 3 0 0 0-1-.2l-12.9 33.9c-1.6-2-1.2-3.6-.7-5.1l9.4-27.8c.8-2.5 1.3-5.1 1.9-7.7v.3z"/>
    <path d="M860.9 938.4c-2.1-.7-4-.8-5.3-1.8a49.2 49.2 0 0 0-27.7-8.8c-5.4-.3-10.1 2.5-13.8 6.7a42 42 0 0 0-10.4 21.6c-.6 3.5-.8 7.1-1.3 10.7-.2 1.8-.7 3.5-1.3 6.1-2.7-6.2-.9-18.1 3.7-27.7a44.7 44.7 0 0 1 19.9-20.7c-2.1-.8-3.2-1.5-4.3-1.6-16-2.1-32-2.5-47.8 1.4-4.4 1.1-8.8 2-13 3.6a20.9 20.9 0 0 0-14.4 18.5c-.1.7-.4 1.3-.9 3-1.9-5 0-8.7 1.7-11.9 2.5-4.9 6.1-9.2 11.5-11.3 4.7-1.8 9.5-3.8 14.4-4.9 16.4-3.6 32.9-4.8 49.4-.8l2.8.7a75.2 75.2 0 0 0 17 4c5.8.7 11.3 3.1 16.2 6.4 1.9 1.2 4.1 2.5 3.6 6.8zM148.4 892.3c-.7.9-.8 1.4-1.1 1.5-9 3.1-18.1 5.1-27.4 1.2-2.3-.9-4.6-1.5-7-2.3-3.8-1.2-4.5-2.3-4-6.2.8-6.2 5.1-10.1 11-8.1 9 3.1 18.7 4.8 26.3 11.2.8.8 1.4 1.7 2.2 2.7zM609.3 938.1c2.3-1.5 4.5-3.5 7-4.4a82 82 0 0 1 25.5-4.6c8.4 0 15.6 3.1 21.6 8.5a61.8 61.8 0 0 1 15.4 19.4c2.2 4.9 3.7 10.2 5.4 15.4 1.5 4.6 2.7 9.4 4.2 14.3-2.1 1.4-3.5 1.2-4.4-1.2-1.2-3.2-2.5-6.3-3.5-9.6a79.5 79.5 0 0 0-24-36.3c-9.3-8.5-20-8.9-31.2-6.7-5.5 1.1-10.8 3.3-16.1 5l.1.2zM290 941c-1.1 3.6.7 5.7 3.3 7.7a28 28 0 0 0 14.3 7c.9.1 1.9.3 2.8.6l8.9 3.8c-1 .1-2 .4-2.9.3-7.3-1.1-14.7-1.7-21.4-4.9l-2.1-.9c-6.3-3.1-7.2-7-2.9-13.6zM572.5 912.5l7 1.5-4.8 9.9c7.2 1.9 14.6-1.5 21.2 4-1.7.7-2.8 1.7-3.3 1.4-9-4.6-18.3-2.7-27.8-1.7 1.5-.5 3-1.1 4.6-1.5a7 7 0 0 0 4.9-4.2c2.4-4.8 2.5-4.7-1.8-9.4zM335.9 912.2c-5-5.3-10.9-7.6-18.2-6.7-2.8.4-5.6.2-8.5.2-8.3-.1-16.4.9-24.2 3.9 4.3-3.2 9.1-5.3 14.4-5.5 8.5-.3 16.9-.5 25.4-.2a21 21 0 0 1 8.9 3c1.5.8 2.2 3.1 3.2 4.7l-1 .6zM538.1 574.1h6a19 19 0 0 1 .1 13.3c-.4 1.2-1.9 2-3.2 3.3-1.1-2.4-2.5-3.7.2-5.2 2.2-1.2 2.8-2.7-.1-4.2-3.1-1.5-1-4.7-3-7.2zM155.5 873.7c-.1 2.8-2.1 3.2-3.9 3.6-2.7.6-5.5 1.1-8.3 1.1-1.6 0-2.3-2.6-1-3.5 1-.7 2.4-1.2 3.6-1.2 3.2.1 6.5-2.9 9.6 0zM449.2 475.9l-4.3-2-.6 1.1-.9 1.7c-3.6-3 .1-6.9-2.3-10.1h5.2c-.2 3.6 3.6 5.7 2.6 9.4l.3-.1zM609.1 938l-3.6 3.6c-3.6 3.3-6.2 7-6.4 12.2-.1 1.6-.7 3.2-1.2 5.4-2.4-8 2.4-16.5 11.4-20.9 0-.2-.2-.3-.2-.3zM328.9 742.2c.1 5.8-4.4 7.9-7 11.8-1.2-4.9.7-8.1 7-11.8zM656.7 878.7c-4.5.8-8-.9-11.2-3-.6-.4-.6-2-.8-3l1.1-.8 10.9 6.8zM340.8 809.5l-2.1 7.1c-2.7-5.5-3-11.3-.1-16.6-.2 2.7-.6 4.3-.3 5.7.4 1.2 1.6 2.3 2.5 3.8zM449.1 476.1c3.8 2.1 3.8 2.1 1.9 7.7l-6.6-2.4 4.9-5.3c-.1-.2-.2 0-.2 0zM360.6 716.1l-12.2 13c2-5.1 4.4-9.8 8.8-13.1.4-.4 1.5 0 3.4.1zM314.4 929.4l-17.4 4.8c6.2-4.5 12.3-6.1 17.4-4.8zM271.2 810c-1.4-7.3 3.9-10.3 7.3-14.5l1.2.8-3.6 4.2c-1.4 1.5-2.6 2.8-2.4 5.3 0 1.4-1.6 2.8-2.5 4.2zM334.7 862.4c1.7-4.3 4.3-6.4 7.6-8.7-.6 5.4-2.3 7.5-7.6 8.7zM333.3 673.5c-1.4-6.3-.6-7.4 5.5-7.1l-5.5 7.1zM430.1 468.4c1.3 2.9 1.3 2.9.5 6.9-.8-.2-2.1-.1-2.4-.6-1.5-2.3 0-4.1 1.9-6.3zM470.8 452.7c1.2-1.7 1.6-3 2.4-3.4a7 7 0 0 1 3.5-.4c.3 0 1 1.5.7 1.9-.7 1-1.6 2-2.6 2.4-.8.3-2-.2-4-.5zM542 607.5c2.2 6.2 2.2 6.2-2.3 9.6l2.3-9.6zM327.9 828.5l2.1-7.4c3.6 4.3 3.5 4.8-2.1 7.4zM456.2 438.1c-1.8 3.7-1.8 3.7-6 3.9 2.4-5.3 2.4-5.3 6-3.9zM466 253.5c-2.5-2.2-4-4.7-2.6-8.8 2.5 3 3.7 5.5 2.6 8.8zM459.2 246.2c2.2 2.9 3.6 5.1 2.9 8.1-3.9-2.1-4.2-2.7-2.9-8.1zM373.9 735.2l2.5-9.7c1.7 3.7 1.7 3.7-2.5 9.7zM447 450.5c-1.2-4.7.3-6.2 4.8-5.3-4 2.4-4 2.4-4.8 5.3zM273.9 937.5c-1.6-7.4-1.6-7.5.6-13.7-.2 3-.5 4.9-.5 6.9-.2 1.8-.1 3.8-.1 6.8zM475.6 443.4l-.6-8 1.6-.1.8 8.1h-1.8zM410.9 484.2c1.7-2.7 2.9-4 5.5-3.1-.6 2.9-2.5 2.9-5.5 3.1zM442 412.5v5.6c-1.6-.8-3.3-1.2-3.4-1.9-.3-2.1 1-3.3 3.4-3.7zM475.5 456l2.6 4-6.2-1.1c-.2-2.8 2.1-2.4 3.8-2.7l-.2-.2zM661.8 742.6c-1-3.3-4-6.3-1.7-11 2 4 1.4 7.6 1.7 11zM514.5 545.5l-3.2-5.3c3 0 3 0 3.2 5.3zM431.2 493.3l-4.9.6c1.6-2.8 1.6-2.8 4.9-.6zM183.4 893.9l6.4-.8c-2.1 3.2-2.9 3.4-6.4.8zM347.2 845.4l3.5-5.6c1.8 3.5-.8 4.7-2.4 6.4l-1.1-.8zM173.2 867.8l3.2-.9.4 1-3 1.4-.6-1.5zM617.4 873.6c-3.3-2.1-3.2-3.3 0-4.6v4.6zM436.6 411.6l-2.5-3.7.8-.6 3.1 3.2-1.4 1.1zM555.8 582.1 553 580l.6-.8 2.9 2-.7.9zM434 441.3l-2.6.9-.4-.8 2.5-1.3.5 1.2zM517.2 520.3l2 2.6-.9.9-2.3-2.3 1.2-1.2zM579.8 676.9c.8.7 1.5 1.1 1.5 1.3-.1.6-.6 1-1 1.6-.4-.3-1-.5-1-.8 0-.6.2-1.2.5-2.1zM587.5 682.6c.6 1 1 1.5 1.2 2.1 0 .1-.8.8-1.1.7-.4-.2-.9-.7-1-1.1 0-.4.4-.9.9-1.7zM427.2 505.2l.4.2-.1.8-.4-.2.1-.8zM706.3 793l2.7-.3.1.6h-2.7l-.1-.3zM693.3 780.2l2.7 1.1-.4.9-2.7-1.1c.2-.2.3-.6.4-.9zM198.9 853l2.8-1.9.6.5c-.3.5-.5 1.1-.9 1.4h-2.5zM194.5 868.5l2.4-.8.3.8-2.4.9-.3-.9zM398.8 466.5l.4-.9 1 .7-.6.7c-.3 0-.5-.3-.8-.5zM429.9 445.7l.9.4-.8 1.1-.7-.7c0-.2.4-.5.6-.8zM341.2 736.8l-1.5 1.7-.6-.5 1.5-1.8.6.6zM461.4 538l-.6 2.6-1-.3c.1-.9.4-1.7.6-2.6l1 .3zM307 767.7l1.6-1.5.6.6-1.6 1.5-.6-.6zM350.6 833.2l-1.5.8c-.2-.4-.5-.8-.5-1.2 0-.2.6-.6.8-.5l1.2.9zM405.5 949.7c.1.2.3.4.2.5l-.5.4-.1-.5.4-.4zM277.9 791.1l1.7-1.4.5.6-1.7 1.5-.5-.7zM225.2 838.5c.3.7.7 1.3.5 1.5-.2.3-.8.5-1.2.6-.1 0-.5-.6-.4-.8.1-.4.5-.8 1.1-1.3zM493.1 613l18.5 46.5c-1.7.7-2.8-.4-3.5-1.7-1.9-3.5-3.8-6.9-5.3-10.6-3.7-9.1-7.2-18.2-10.6-27.4-.7-2-.8-4.2-1.2-6.2l2.1-.6z"/>
  </g>
  <g fill-rule="evenodd" clip-rule="evenodd">
    <path d="M358 132.3c1.9 2 4 3.9 5.8 6 2.4 2.8 4.7 5.8 7.6 9.5l1.1-5.5c1.8 2.4 3.5 4.5 5.1 6.8.7 1.1 1.4 2.3 1.7 3.6 3.4 13.2 12.6 19.8 25.1 23.1 12.5 3.3 23.5-1.2 34.5-5.8 2.5-1 3.1-3.1 3.2-5.5.2-7.2.8-14.4.6-21.5-.3-10.2-1.1-20.4-1.7-30.7-4.1-1.8-8.2-3.9-12.4-5.1-1.6-.4-4.2.6-5.5 1.9-4.7 4.7-10.7 5.6-16.7 5.8-9.5.3-17-9.1-15.1-18.4l1.9-9.7-3.1-2c-4.9-2.6-6.8-6.2-5.1-11.2a18 18 0 0 0 0-11c-2.5-9.3 3-21.2 11.5-25.5.8-.4 1.9-1 2.6-.8 3.5.9 5-1.2 6.8-3.7 2.1-2.9 4.9-5.2 7.2-8 2.7-3.1 5.8-3.1 9.3-1.9 1.8.6 3.5 1.4 5.2 2.2 2 .9 3.6.3 5.7-.3 8.6-2.3 15.4-9.1 24.5-10 3.2-.3 6.4-.8 9.6-.7 4.3.2 5.8 2 5.3 6.2-.2 2.2-.9 4.5-1.9 6.5l-11.4 22.2c-.3.6-.3 1.4-.6 2.9l5-2.2c8.1-3.2 15.9-4.5 23.7 1 2.3 1.6 3.5 3.2 3.5 5.9l-.1 3.4c-.2 6.4.2 7.2 6 12.4v-5.8c1.4 1 2.2 1.3 2.7 1.9 2.1 2.9 1.9 3.1-3 7.9.7 2.8 1.2 5.8-1.1 8.4-.2.3-.4.7-.4 1 .4 11.4-9.5 14.6-16.2 19.8a36.6 36.6 0 0 1-21.5 6.2c-8.7.3-8.7.6-8.6 9.2l.1 34.6c0 1.7.3 3.5.4 5.2l1.3.3c1-1.5 2.2-2.9 3-4.5 3.6-7 8.7-12.9 14.4-18 4-3.6 9.1-6 13.9-8.6a88.4 88.4 0 0 1 31.8-9.7c3.2-.4 6.3-1.2 9.5-1.6l27.6-3.3 14.6-1.7c3.8-.5 7.3-1.6 10.5-3.8 2.4-1.6 5.5-2.3 9-3.7l-.5 4.9 12.8-.9.2 1.1c-.6.3-1.1.8-1.7 1-1.8.4-3.7 1.1-5.6 1-13.6-.4-22.2 7.8-30.3 17.1a170.5 170.5 0 0 0-25.4 42.1c-3 6.5-5.4 13.3-8.1 19.9-.6 1.6-1.3 3.1-2.1 4.7-3.7 7.3-5.8 8-14 7.1-13.1-1.4-21.8-8.7-28.3-19.4-1.1-1.8-2.3-3.5-3.3-5.3a23.1 23.1 0 0 0-15.2-11.7c-2.4-.7-5.3-.7-7.4-4.1 2.4-.3 4.2-.8 5.8-.6 14.1 1.8 26.2-3.5 38.1-10.2 8.9-5 17.4-10.5 25.6-16.6 1.9-1.5 4.7-1.9 7.4-2.1-8.1 7.4-17.5 13-26.7 18.6-9.3 5.7-18.9 10.8-28.9 16.5 6.5 8 11.6 17.4 21 22.9a39.4 39.4 0 0 0 17.4 4.4c3.1.3 5.1-1.1 6.4-3.7l4.5-9.2c3.7-8.1 7.1-16.2 11-24.2 2.9-5.9 6.3-11.6 9.6-17.4a87.3 87.3 0 0 1 16.7-20.6c1.2-1.1 2.3-2.4 3-4.4-2.5.4-5 1-7.5 1.3-11.2 1.6-22.5 2.9-33.7 4.8a467 467 0 0 0-33.3 6.7 60.7 60.7 0 0 0-33.3 23.3 67 67 0 0 0-7.6 12.6c-1.4 3-2.3 6.6-2.1 9.8.8 12 1.6 24.1 6.8 35.4 2.1 4.5 3.8 9 7.6 12.4 1.9 1.8 3.8 3.9 2 6.8-2.9.9-4.2-1.3-6-2.5-1.3-.9-2.9-2.3-4.3-2.2-3.3.3-4.5-1.6-5-4.2l-3.9-20.6-2.3-10.4-3-12.2c-1.3.9-2.6 1.4-3.1 2.3-1.6 3.4-3.3 6.9-4.1 10.5a75.3 75.3 0 0 1-18.7 34.5 20.8 20.8 0 0 1-23.1 6.6 29.8 29.8 0 0 1-14.1-11c-7.8-10-8.4-21.6-7.5-33.5.6-7.5 1.4-15.1 2.3-22.6.7-5.7-.3-10.5-4-15.3-4.3-5.4-7.5-11.7-11.2-17.6l.2.5zm20.2 29.5-.8 3.7c-2 13-.5 26 .3 39 .5 8 4.5 14.7 10.5 20.1 6.5 5.9 11.8 6.2 17.7-.1a120 120 0 0 0 13.9-17.8 30 30 0 0 0 5.6-16c-7-1-13.2 3.5-20.1 1.8 7.9-2.7 15.9-5 21.8-12.9-9.9.2-18.7.9-27.5-1.4-8.9-2.2-15.2-8.2-21.4-16.4zm66-133.5c0 1.8.3 3.1-.1 4-.4.8-1.7 1.9-2.4 1.8-6.7-.9-13.3-2-20.5-3.1-.8 1-3 1.9-2.9 4.8 2-.6 3.6-1.4 5.2-1.5.9-.1 2.1.8 2.7 1.6.4.5 0 1.9-.5 2.5-3.5 4.7-12.2 5.8-14.6-.4-.5-1.3-1.6-2.3-2.5-3.7-2.4 2.5-2.1 4.2-.3 6.3 2.2 2.5 1.8 3.3-1.6 4.6l-1.6.5c.4 1.8.6 3.5 1.3 5 .5 1.1 1.3 2.4 2.3 2.9 2.6 1.2 5.5 2 8.8 3.2l2-7c1-3.5 2.4-5 5.5-4.1 4.3 1.1 6.4-.6 7.8-4.3.9-2.6 2.6-4 5.5-3.9 1.5 0 3-.4 4.5-.6 2.1-.3 3.4.5 4.6 2.4 3 4.9 6.5 5.5 11.5 2.3-2.5-1.9-5.1-3.7-7.3-5.9-.8-.7-1.2-2.5-.9-3.5.6-2.2 5.1-3.7 7.5-2.8 3 1.2 4.4.7 4.7-2.3.3-2.1-.3-4.3-.5-6.7-4.6.6-9.1-.1-10.9 4.4-1.4 3.1-3.6 4-7.3 3.5zm21.7 54.3c-2 .4-3.6.6-5 1.1-2.1.8-2.7 3-1 4.5 2.8 2.4 6.4 4.6 9.7 3.2 4.6-2 7.3-.9 10.4 2.4 2.7 2.9 5.2 2.7 7.1-.2 2.4-3.6 4.4-7.4 6.3-11.3.9-1.9.2-4.2-2-4.5-3.1-.4-6.4-.3-9.5.4-1.5.3-2.7 2.4-3.7 3.9-2.3 3.3-3.8 3.8-7.6 2.4-1.6-.8-3.3-1.4-4.7-1.9zm-34 6.9c3.6-.9 5.8-1.6 6.5-4.6.3-1 1.6-2.1 2.6-2.6 2.9-1.4 5.8-2.3 9.3-1.7 2.8.5 5.9.6 9.3-.8-1.2-1.3-1.8-2.7-2.8-3-2.7-.8-5.5-1.2-8.3-1.6-7.6-.9-14 3.8-21.2 4.8-.7.1-1.1 1.5-1.9 2.6 3.5 1 6.6-3.3 9.6.5l-3.1 6.4zM397 67.4l-5.4 4.3c-2 1.7-2 3.8-.3 5.4a11 11 0 0 0 5.1 2.9c5.2 1 10.4 1.5 15.7 2 1.9.2 4 1 5.5.1l-3.4-7.8c-2.6.9-5.1 2.2-7.8 2.8-6.9 1.6-9-.2-8.8-7.3l-.6-2.4zm43.7 2.2-1.9-10.4c-4.2 2.2-8.3 4.2-12.3 6.6-1.2.7-2 2.2-2.6 3.5-1.2 2.5-.4 3.9 2.4 4.2 4.5.6 7.9-1.3 10.2-4.9l4.2 1zm19.4 1c5 2.8 9.1 3.1 13.6.7l-2.8-3.8c-2.9-4.3-3.8-4.4-7.7-.9-1 1-1.8 2.3-3.1 4zm-45.8 36.2c.1-2.9-.7-5.5-2.6-7.7-1.3-1.6-3.6-1.3-4 .5-.4 2.2-.6 5 .5 6.8 1.2 2 3.8 2.1 6.1.4zm21.8-53.6-5.1 4.2c3.8.4 5.9.2 5.1-4.2zm-19.7 35.7a3 3 0 0 1-.5.7l.4.2.5-.7-.4-.2z"/>
    <path d="M444.3 240.7c1.1-4.7 2.4-9.2 4.4-14.6 2.8 5.2 1 10.4-4.4 14.6zM358.1 132.2l-1.8-2.3.9-.4.8 2.8.1-.1z"/>
  </g>
</svg>
